<svg viewBox="0 0 12 12" fill="black" xmlns="http://www.w3.org/2000/svg">
<path d="M10.5001 6.00003C10.5001 5.80112 10.4211 5.61035 10.2804 5.4697C10.1397 5.32905 9.94898 5.25003 9.75007 5.25003L3.81007 5.25003L5.78007 3.28003C5.91255 3.13785 5.98468 2.94981 5.98125 2.75551C5.97782 2.56121 5.89911 2.37582 5.76169 2.23841C5.62428 2.101 5.4389 2.02228 5.2446 2.01885C5.05029 2.01543 4.86225 2.08755 4.72007 2.22003L1.47007 5.47003C1.32962 5.61065 1.25073 5.80128 1.25073 6.00003C1.25073 6.19878 1.32962 6.3894 1.47007 6.53003L4.72007 9.78003C4.78873 9.85372 4.87153 9.91282 4.96353 9.95381C5.05553 9.9948 5.15485 10.0168 5.25555 10.0186C5.35625 10.0204 5.45628 10.0019 5.54967 9.96415C5.64306 9.92643 5.72789 9.87029 5.79911 9.79907C5.87033 9.72785 5.92647 9.64302 5.9642 9.54963C6.00192 9.45624 6.02044 9.35621 6.01866 9.25551C6.01689 9.1548 5.99485 9.05549 5.95385 8.96349C5.91286 8.87149 5.85376 8.78869 5.78007 8.72003L3.81007 6.75003L9.75007 6.75003C10.1641 6.75003 10.5001 6.41403 10.5001 6.00003Z"/>
</svg>