<svg viewBox="0 0 24 24" fill="black" xmlns="http://www.w3.org/2000/svg">
<path d="M10.1459 3.24805C10.2953 2.87876 10.5516 2.5625 10.8819 2.33982C11.2122 2.11714 11.6015 1.99817 11.9999 1.99817C12.3983 1.99817 12.7876 2.11714 13.1179 2.33982C13.4482 2.5625 13.7045 2.87876 13.8539 3.24805C15.3329 3.65428 16.6376 4.53503 17.5673 5.75491C18.497 6.97479 19.0003 8.46626 18.9999 10V14.697L20.8319 17.445C20.9324 17.5956 20.9901 17.7707 20.9989 17.9515C21.0077 18.1324 20.9672 18.3122 20.8818 18.4718C20.7964 18.6314 20.6692 18.7649 20.5139 18.8579C20.3586 18.951 20.1809 19.0001 19.9999 19H15.4649C15.3445 19.8331 14.928 20.595 14.2916 21.146C13.6552 21.697 12.8417 22.0003 11.9999 22.0003C11.1581 22.0003 10.3446 21.697 9.7082 21.146C9.07184 20.595 8.65531 19.8331 8.53491 19H3.99991C3.81886 19.0001 3.64121 18.951 3.4859 18.8579C3.33058 18.7649 3.20344 18.6314 3.11803 18.4718C3.03262 18.3122 2.99215 18.1324 3.00093 17.9515C3.00972 17.7707 3.06743 17.5956 3.16791 17.445L4.99991 14.697V10C4.99991 6.77605 7.17991 4.06005 10.1459 3.24805ZM10.5859 19C10.6892 19.2927 10.8807 19.5461 11.134 19.7254C11.3874 19.9046 11.6901 20.0009 12.0004 20.0009C12.3107 20.0009 12.6134 19.9046 12.8668 19.7254C13.1201 19.5461 13.3116 19.2927 13.4149 19H10.5859ZM11.9999 5.00005C10.6738 5.00005 9.40205 5.52683 8.46437 6.46451C7.52669 7.40219 6.99991 8.67396 6.99991 10V15C6.99995 15.1976 6.94149 15.3907 6.83191 15.555L5.86891 17H18.1299L17.1669 15.555C17.0577 15.3906 16.9996 15.1975 16.9999 15V10C16.9999 8.67396 16.4731 7.40219 15.5354 6.46451C14.5978 5.52683 13.326 5.00005 11.9999 5.00005Z"/>
</svg>
